<svg xmlns="http://www.w3.org/2000/svg" viewBox="0 0 89.6 85.1"><path d="M12.9 15.1c1.7 0 3.4.3 4.9.9-.3-1-.4-2.1-.4-3.2 0-7 5.7-12.8 12.8-12.8 7.1 0 12.9 5.8 12.9 12.9v28H12.9C5.8 40.9 0 35.1 0 28c0-7.1 5.8-12.9 12.9-12.9zm76.7 42c0-7.1-5.8-12.9-12.9-12.9H46.4v28c0 7.1 5.8 12.9 12.9 12.9 7.1 0 12.9-5.8 12.9-12.9 0-1.1-.1-2.2-.4-3.2 1.5.6 3.1.9 4.9.9 7.1.1 12.9-5.7 12.9-12.8z" fill="#00499a"/><path d="M89.6 28c0 7.1-5.8 12.9-12.9 12.9H46.4v-28C46.4 5.8 52.2 0 59.3 0c7.1 0 12.9 5.8 12.9 12.9 0 1.1-.1 2.2-.4 3.2 1.5-.6 3.1-.9 4.9-.9 7.1-.1 12.9 5.7 12.9 12.8zM12.9 70c1.7 0 3.4-.3 4.9-.9-.3 1-.4 2.1-.4 3.2 0 7.1 5.8 12.9 12.9 12.9 7.1 0 12.9-5.8 12.9-12.9v-28H12.9C5.8 44.2 0 50 0 57.1 0 64.2 5.8 70 12.9 70z" fill="#ee7c00"/></svg>