<svg version="1.2" baseProfile="tiny" xmlns="http://www.w3.org/2000/svg" viewBox="0 0 213.116 217.425" overflow="visible"><path fill="#F69220" d="M70.704 175.658c-4.415.42-8.906-1.294-11.76-6.186L1.862 71.648c-3.798-6.508-1.6-14.863 4.908-18.66 6.51-3.799 14.863-1.6 18.66 4.907l57.08 97.822c5.623 9.635-2.939 19.095-11.806 19.94z"/><path fill="#FFF" d="M209.397 142.688c-3.97 9.528-10.5 18.228-18.266 24.919-21.827 18.804-50.408 27.941-74.922 42.476-9.695 5.749-24.234 13.292-31.58-.293-3.93-7.3-1.2-16.4 6.1-20.34 25.234-13.583 49.996-28.063 74.9-42.24 11.835-6.737 15.5-22.074 8.79-33.73-6.288-10.922-20.546-17.861-32.29-11.18-7.632 4.172-15.26 8.35-22.865 12.57-6.522 3.618-14.597 10.47-22.365 10.47-4.98 0-9.83-2.58-12.5-7.21-3.98-6.9-1.62-15.72 5.28-19.7 10.984-6.351 21.833-12.925 32.79-19.32 11.687-6.822 12.866-22.65 6.56-33.54-6.656-11.493-21.77-16.18-33.58-9.34l-31.98 18.26-.33.19a15.17 15.17 0 01-7.54 2.01c-5.27 0-10.4-2.75-13.21-7.66-4.17-7.29-1.64-16.58 5.65-20.74l.44-.26C64.42 18.067 80.537 6.593 99.059 2.02c7.56-1.88 14.85-2.45 21.86-1.7 24.807 2.654 45.385 28.47 43.09 53.2-.66 7.11-2.38 14.13-5.67 20.53 9.4-.99 18.52 1.16 26.68 5.02 23.658 11.19 34.335 39.718 24.378 63.618z"/></svg>