<svg xmlns="http://www.w3.org/2000/svg" viewBox="0 0 300 51.84"><path d="M294.52 3.94C290.69 1.32 284.91 0 277.32 0h-19.86l-7.38 40.09h-26l1.65-9.09h15.67l1.86-10.22H227.6l1.68-9.05h16.15L247.57 0h-32.79l-7 38h-12l7.06-38h-17.18l-7 38h-11.73L174 0h-17.14l-7.39 40.09h-26.21l1.66-9.09h15.74l1.86-10.16H126.8l1.67-9.07h16.33L146.92 0H44.75l-5.82 31.77L27.35 0H9.57L0 51.84h17l5.77-32.64L34 51.84h60.87l7.4-40.1h9.52l-7.4 40.1h160.14l4.64-25.31 7.51 25.31h17l-7.78-20.68 1.78-.38a15.24 15.24 0 009.11-5.35A16.56 16.56 0 00300 15c0-4.9-1.79-8.51-5.49-11zM80.1 40.09h-26L55.78 31h16.31l1.85-10.24H57.79l1.56-9h26l-5.26 28.33zm200.42-17.46c-1.71 1.19-4.19 1.78-7.57 1.78h-3.36l2.58-13.91h2.47c2.81 0 4.86.45 6.28 1.37a5.44 5.44 0 012.42 4.85 6.81 6.81 0 01-2.82 5.92z" fill="#83ba3b"/></svg>