<svg xmlns="http://www.w3.org/2000/svg" viewBox="0 0 225.5 223.3"><path d="M125.9 144.4H99.6V78.6H126v65.8zM193 78.6h-26.4v65.8H193V78.6zm27.9-38.9L116.5.7c-2.4-.9-5-.9-7.4 0L4.6 39.7c-2.2.8-3.7 3-3.7 5.3v15.1c0 3.1 2.5 5.7 5.7 5.7h212.3c3.1 0 5.7-2.5 5.7-5.7V45c0-2.3-1.5-4.4-3.7-5.3zm-8.8 137.4v-5.9c0-7.5-6.1-13.6-13.6-13.6h-52.9l13.3 26.3h46.3c3.8.1 6.9-3 6.9-6.8zm13.4 39.4v-5.9c0-7.5-6.1-13.6-13.6-13.6h-47l13.9 26.3h39.8c3.9 0 6.9-3 6.9-6.8zm-193-72.1h26.4V78.6H32.5v65.8zm97.8 13.2h-35l-33.5 65.7h102l-33.5-65.7zM20.3 184h46.3l13.3-26.3H27.1c-7.5 0-13.6 6.1-13.6 13.6v5.9c-.1 3.7 3 6.8 6.8 6.8zM6.8 223.3h39.8l14-26.3h-47C6.1 197 0 203.1 0 210.6v5.9c0 3.8 3.1 6.8 6.8 6.8z" fill="#fff"/></svg>