<svg width="425" height="116" fill="none" xmlns="http://www.w3.org/2000/svg"><g clip-path="url(#clip0)"><path d="M196.632.474h-7.6a35.112 35.112 0 00-35.11 35v80.42s21 1.26 21-7.64v-34.31c3.48 7.74 9.91 12.53 21.71 12.53a35.29 35.29 0 0035.29-35.29v-15.42a35.3 35.3 0 00-10.336-24.954A35.297 35.297 0 00196.632.474zm14.29 50a18.003 18.003 0 01-18 18 18 18 0 01-18-18v-13a17.998 17.998 0 0130.728-12.728 18.003 18.003 0 015.272 12.728v13zm143.1-47.92v21.92h-6.1c-9.94 0-18 5.06-18 15v13a18.435 18.435 0 000 2.23V84.8h-20.93V37.584c0-.72-.05-1.44 0-2.16a35.04 35.04 0 0135.04-32.87h7.6c.8 0 1.6-.054 2.39 0zM42.632.474h-7.6a35.111 35.111 0 00-35.11 35.11V116s21 1.26 21-7.64V73.944c3.48 7.74 9.91 12.53 21.71 12.53a35.29 35.29 0 0035.29-35.29v-15.42A35.29 35.29 0 0042.632.474zm14.29 50a18 18 0 11-36 0v-13a18.002 18.002 0 0124.888-16.63 18.002 18.002 0 0111.112 16.63v13zm69-50h-17.27a25.728 25.728 0 00-25.47 22.12h20.74s3-6.12 13-6.12 13 4 13 9c0 12.52-45.44 2.78-48.8 30.62a28.002 28.002 0 00-.2 3.378c0 18 9.7 27 21.67 27h16.97a30.36 30.36 0 0030.36-30.36V21.384c0-11.55-12.45-20.91-24-20.91zm4.47 53s-.47 16-18.47 16c0 0-11.54 1-11.54-10 0-3 .54-9 13.54-11s16.47-5 16.47-5v10zm148.53-53h-17.27a25.726 25.726 0 00-25.47 22.12h20.74s3-6.12 13-6.12 13 4 13 9c0 12.52-45.44 2.78-48.8 30.62l-.2 3.38c0 18 9.7 27 21.67 27h16.97a30.36 30.36 0 0030.36-30.36v-34.73c0-11.55-12.45-20.91-24-20.91zm4.47 53s-.47 16-18.47 16c0 0-11.54 1-11.54-10 0-3 .54-9 13.54-11s16.47-5 16.47-5v10zm117.53-53h-17.27a25.726 25.726 0 00-25.47 22.12h20.74s3-6.12 13-6.12 13 4 13 9c0 12.52-45.44 2.78-48.8 30.62l-.2 3.38c0 18 9.7 27 21.67 27h16.97a30.36 30.36 0 0030.36-30.36v-34.73c0-11.55-12.45-20.91-24-20.91zm4.47 53s-.47 16-18.47 16c0 0-11.54 1-11.54-10 0-3 .54-9 13.54-11s16.47-5 16.47-5v10z" fill="url(#paint0_linear)"/></g><defs><linearGradient id="paint0_linear" x1=".878" y1="58.27" x2="418.943" y2="58.27" gradientUnits="userSpaceOnUse"><stop stop-color="#DC3D4E"/><stop offset="1" stop-color="#931C80"/></linearGradient><clipPath id="clip0"><path fill="#fff" d="M0 0h425v116H0z"/></clipPath></defs></svg>