<svg xmlns="http://www.w3.org/2000/svg" xmlns:xlink="http://www.w3.org/1999/xlink" viewBox="0 0 258.66 260"><defs><path id="a" d="M106.8 105.41C98.08 91.5 93 77.08 91.56 62.13c-12.68-10.4-32.9-15.51-60.66-15.32-.838.006.538 15.643.75 17.06 1.886 12.618 6.758 24.563 15.344 34.167 7.818 8.745 18.053 15.234 29.068 19.166 1.553.555 3.109 1.099 4.685 1.585a96.087 96.087 0 007.773 2.038c2.696.589 5.416 1.066 8.15 1.44l.25.034c1.54-6.5 4.98-12.39 9.88-16.89zm-53.3 65.65h-.28c-7.9 12.08-12.96 29.35-15.17 51.83 12.16 1.85 23.38 1.3 33.65-1.67 26.731-7.73 42.507-33.297 47.94-59.19a32.911 32.911 0 01-13.41-7.88c-16.86 11.11-34.44 16.74-52.73 16.91zm-5.51-59.34a65.199 65.199 0 01-5.24-4.73c-12.88 3.52-27.13 11.6-42.75 24.23a76.526 76.526 0 0024.55 23.13 58.733 58.733 0 0026.47 7.8h2.48c16.45-.16 32.19-5.15 47.21-14.97a33.412 33.412 0 01-4.67-15.95c-18.39-2.47-34.41-8.98-48.05-19.51zm103.51 44.7c8.52 14.27 13.39 29.03 14.61 44.26 12.54 10.78 32.68 16.26 60.45 16.46.84-11.55-.68-23.17-4.48-34.08l.28.01c-.448-.016-4.805-9.795-5.468-10.861-1.968-3.161-4.144-6.201-6.626-8.979-12.246-13.7-30.781-21.174-48.635-23.881-1.641 6.601-5.171 12.551-10.131 17.071zm54.24-66.09h.28c8.08-12.18 13.38-29.69 15.92-52.54-12.14-2.06-23.36-1.66-33.67 1.22-4.032 1.126-7.957 2.767-11.661 4.706a64.68 64.68 0 00-10.605 6.96c-1.684 1.359-3.303 2.823-4.722 4.461-1.519 1.753-3.055 3.482-4.485 5.311a78.304 78.304 0 00-2.123 2.843 86.914 86.914 0 00-6.044 9.83 93.983 93.983 0 00-4.844 10.816 106.353 106.353 0 00-3.646 11.801c-.064.258-.777 2.799-.669 2.853 5.01 1.61 9.57 4.42 13.3 8.21C169.79 95.73 187.45 90.24 205.74 90.33zm4.66 60.48a64.67 64.67 0 015.17 4.9c12.92-3.41 27.29-11.43 43.09-24.07-6.24-9.72-14.51-17.88-24.21-23.89-8.03-4.86-17.06-7.71-26.36-8.31l-2.48-.04c-16.45-.07-32.26 4.79-47.42 14.57 2.8 4.96 4.34 10.57 4.45 16.3 18.35 2.79 34.27 9.63 47.76 20.54zM99.774 59.684c1.487 14.291 7.186 28.515 14.316 40.546 4.65-2.41 9.8-3.66 15.02-3.66h.65c.009 0 .059-.278.064-.305l.077-.36.151-.691a119.38 119.38 0 01.979-4.089c.459-1.778.961-3.546 1.506-5.3a106.505 106.505 0 011.735-5.127c.612-1.668 1.266-3.32 1.964-4.954a99.565 99.565 0 012.193-4.78 95.231 95.231 0 015.075-9.039 92.137 92.137 0 015.994-8.344 91.505 91.505 0 013.342-3.911 55.517 55.517 0 011.793-1.876c.023-.023.033-.049.052-.075.011-.016.022-.023.027-.042.014-.047-.013-.124-.018-.171-.038-.348-.168-.697-.249-1.038a31.67 31.67 0 01-.181-.811c-.044-.213-.16-.488-.16-.703a58.037 58.037 0 00-.434-1.696 63.524 63.524 0 00-.487-1.711 70.622 70.622 0 00-1.13-3.465 70.275 70.275 0 00-.643-1.754 84.694 84.694 0 00-1.835-4.448 91.353 91.353 0 00-1.258-2.712 95.96 95.96 0 00-.905-1.826 113.834 113.834 0 00-1.966-3.696 106.17 106.17 0 00-1.061-1.87 144.493 144.493 0 00-1.689-2.832 115.856 115.856 0 00-1.193-1.906 119.945 119.945 0 00-1.245-1.92 161.734 161.734 0 00-6.249-8.822 190.307 190.307 0 00-3.118-4.015l-.812-1.013A261.836 261.836 0 00129.05.001a80.574 80.574 0 00-22.62 25.07c-6.211 10.764-7.894 22.712-6.656 34.613zm58.503 140.638c-1.491-14.333-7.172-28.608-14.257-40.552-4.65 2.41-9.8 3.66-15.02 3.66h-.65a125.598 125.598 0 01-1.047 4.563 115.21 115.21 0 01-2.317 8.013 106.228 106.228 0 01-2.845 7.614 98.39 98.39 0 01-3.372 7.215 95.187 95.187 0 01-3.899 6.816 91.441 91.441 0 01-4.426 6.416 92.775 92.775 0 01-3.243 4.055 93.66 93.66 0 01-2.586 2.925c-.322.349-.616.732-.969 1.052-.065.059-.133.116-.178.19-.097.156-.003.296.029.456l.08.39a65.745 65.745 0 001.047 4.271 71.116 71.116 0 001.38 4.363 81.452 81.452 0 001.713 4.455 96.607 96.607 0 003.196 6.855 110.445 110.445 0 002.548 4.685 128.653 128.653 0 002.882 4.779 147.15 147.15 0 003.216 4.871 163.187 163.187 0 003.55 4.963c.626.844 1.26 1.683 1.901 2.517a211.128 211.128 0 004.052 5.103 80.574 80.574 0 0022.62-25.07c6.173-10.7 7.836-22.673 6.595-34.605z"/></defs><clipPath id="b"><use xlink:href="#a" overflow="visible"/></clipPath><radialGradient id="c" cx="113.349" cy="661.301" r="170.33" gradientTransform="translate(0 -530.033)" gradientUnits="userSpaceOnUse"><stop offset="0" stop-color="#ffa73f"/><stop offset=".688" stop-color="#ff4081"/></radialGradient><path d="M260 0H0v260h260V0z" clip-path="url(#b)" fill="url(#c)"/><path d="M120.6 106.12c-.43.15-.89.26-1.31.45-5.33 2.19-9.74 6.16-12.5 11.24s-3.7 10.96-2.65 16.66c.13.75.26 1.5.45 2.24s.43 1.49.68 2.24c1.82 5.02 5.1 9.37 9.41 12.49.37.25.72.49 1.11.73.82.5 1.66.96 2.52 1.38.6.3 1.21.59 1.85.85 2.98 1.19 6.15 1.81 9.35 1.82.3 0 .58-.07.87-.09v-.09c3.38-.15 6.71-.91 9.83-2.24 5.8-2.54 10.46-7.16 13.07-12.95 2.62-5.79 3.02-12.36 1.11-18.43s-5.98-11.21-11.43-14.44-11.89-4.31-18.09-3.05c-.37.08-.73.14-1.12.23-1.07.25-2.12.57-3.15.96h0z" fill="#ffd833" stroke="#ffd833"/></svg>