<svg xmlns="http://www.w3.org/2000/svg" viewBox="0 0 33.88 35.5"><g fill="#f49600"><path d="M27.43 24.73c-.06-.26-.26-.81-.6-.94s-.36.27-.28.53a2.29 2.29 0 00.62 1.15c.18.11.39-.14.26-.74zM24.76 25.36a1.17 1.17 0 00-.57-.46h-.14a.82.82 0 00-.6.11 1 1 0 00-.13 1.36 1.22 1.22 0 00.57.46H24a.78.78 0 00.6-.11 1 1 0 00.16-1.36z"/><path d="M27 29.07a10.06 10.06 0 012 .86 11.24 11.24 0 014.53 4.51c.43.87.31 1 .26 1a.16.16 0 01-.23-.09 4.08 4.08 0 00-.61-1 13.07 13.07 0 00-13-4.21c-5.06 1.6-13.87-.17-17.63-6C-2.23 17.18.1 7.54 7.55 2.71s17.2-3 21.78 4a15.31 15.31 0 01-1.14 17.82 5.58 5.58 0 00-1-2.35L27 22a5.8 5.8 0 00-.67-.7c.1-.25.19-.5.27-.77a13.32 13.32 0 00-2-11.14c-3.84-5.71-11-7.94-15.71-4.77S3 14.94 6.51 20.85a13.61 13.61 0 0010.87 6.07 4.77 4.77 0 01-.26-2.52c0 .16.34.62.41.73A5.81 5.81 0 0019 26.67a8.65 8.65 0 003.52 1.54 31.58 31.58 0 014.48.86z"/><path d="M26.37 21.3a5 5 0 00-3.66-1.42 4.24 4.24 0 013.94.75"/></g></svg>