<svg xmlns="http://www.w3.org/2000/svg" viewBox="0 0 1712.4 508.8"><path d="M1393.1 508.2c.1-4.5 110.6-296.7 115-308.9.3-1 .7-1.9 1.9-2.2 2.7.9 2.1 3.4 2.1 5.4.1 5.7-.1 11.3-.1 17v288.8c-39.5-.1-79.2-.1-118.9-.1z" fill="#65c18e"/><path d="M518.1 508.2h-71c0-2.9 64.6-176.1 71.6-193.3 2-4.9 1-6.3-4.3-6.2-17.5.4-35 .5-52.4-.1-5.3-.2-7.5 1.3-9.2 6.4-1.8 5.4-71.4 188.4-71.5 193.1h-70c2-10.7 160.7-429 168.1-448.4 10.9-28.5 31.4-46.8 60.1-56.3 1.8-.6 7.4-3.3 15.9-3.3h82c10.9-.1 22.9 2.6 24.5 3.2 16.6 6.4 24.6 20.1 25.5 36.6.5 9.7-2.7 18.6-6.2 27.5-4.7 12.4-161.7 432.5-163.1 440.8zm-39.5-258.1c1.1.4 1.8.9 2.6.9 19 .1 38 .1 57 .1 2.6 0 4.4-1.3 5.3-3.8 5.4-14.6 63.8-170.3 68.3-182.6 2.1-5.7.7-7.3-5.3-7.3-16.8 0-33.7.1-50.5-.1-4.5-.1-7 1.6-8.6 5.8-7.7 21.1-59.5 158.2-66.2 176.5-1.3 3.2-3 6.4-2.6 10.5zM193.1.2h138.7c6.8 0 15.4 2.5 17.1 3.1 19 6.7 27.6 25.9 24.6 44.5-3.1 19.3-81.7 218-88.3 225.8-9 10.8-20 19-32 26-2.4 1.4-3.9 3.2-4.3 6.2-1.6 11.4-3.5 22.7-5.4 34-4.7 26.7-27.8 163-28.4 168.2h-72c.2-2 .2-4 .5-6C146 489.1 176 328.9 179 313.2c.6-3.2-.7-4.8-4-4.8-8.7.1-17.3.3-26 .4-2.8 0-4.1 1.4-5 4-1.7 5-70.2 183.6-74 195.3H0v-6c1.4-.3 2.5-1 2.9-2.5 2.3-8.2 6-15.8 8.9-23.8 3-8.3 178.6-465.4 181.3-475.6zm5 252.9c7.8 0 15.7-.2 23.5.1 4.5.1 7.4-1.7 8.9-5.7 4.6-12.1 64.3-169.8 68.8-181.8 1.9-4.9.2-6.8-4.9-6.8-16.2.1-32.3.1-48.5-.1-3.2 0-4.9 1.1-6.4 3.7-2.2 4-3.3 8.4-4.9 12.5-4.7 12.1-58.4 153.9-65.4 170.8-2.1 5.1-.9 7.2 4.7 7.2 8.2.1 16.2.1 24.2.1zM1442.6.2c13.2 0 18.6 2.5 20.3 3.1 17.7 6.5 27.1 23.5 26 41.8-.5 8.7-3.5 16.6-6.3 24.5-4.4 12.9-137.6 386.4-141.5 392.9-12.6 21-30.2 35.6-53.8 42.6-1.8.5-11.2 3.1-28.4 3.1h-135.8c.4-3.5 1.7-6.7 2.9-10 4.6-12.1 178.2-490.7 179.2-498h137.4zM1245.9 451c8 0 16-.2 24 .1 4.8.1 7.6-2 9.1-6.2 3.1-8.8 129-360.6 136.3-380.6 1.7-4.6.2-6.9-4.5-6.9-16.7-.1-33.3 0-50 0-4.4 0-7 2-8.3 6.3-2.8 8.9-131.8 367-136.3 380.5-1.8 5.3-.6 6.7 5 6.8 8 .1 16.3 0 24.7 0zM951.2.2c9.5.1 15.6 2.7 17.3 3.3 13.8 4.5 25.1 20.1 25 36.2 0 11-92.4 267-104.5 279.7-10.7 11.3-23.1 19.9-37.6 25.6-10.6 4.2-21.6 5.1-32.8 5.1-18.3 0-36.7.1-55-.1-4.3 0-6.9 1.5-8.3 5.4-5 13.7-51.3 138-53.4 143.9-1.3 2.7-2 4.9-3.6 8.7h-69.2c1.5-4.6 2.9-9.2 4.6-13.7C638.4 481.5 812.7 9.4 816 0c49.8.2 85.6.2 135.2.2zm-58.8 58.6v.2c-6.8 0-13.7.6-20.5-.2-5.5-.6-8.2 1.4-9.9 6-3.2 8.6-76.7 208.8-80.3 217.7-2.2 5.5-1 7.6 5.2 7.6h42.5c6.5 0 8.2-1.5 10.4-7.8 4.5-12.9 76.9-209.2 79.8-217.5 1.5-4.3-.3-6.3-4.7-6.2-7.6.2-15.1.2-22.5.2zM1188.1.2c-3.1 8.9-178.7 493.3-182.3 503-.6 1.6-.9 3.2-.7 4.9h-70c.3-7.5 182.2-501.1 183.1-508 23.3.1 46.6.1 69.9.1zm382.565 354.402h65.01v30.031h11.581v-30.031h53.178v30.031h11.582v-30.031h.25v-11.581h-141.6v11.581zm129.769-302.91h11.582V31.636h.25V20.055h-.25V0h-11.582v20.055h-129.769v11.581h129.769v20.056zm-129.769 357.803h.25v32.396h11.581v-32.396h53.178v30.03h11.581v-30.03h53.178v32.396h11.582v-32.396h.25v-11.581h-141.6v11.581zm67.848-302.229c4.054 4.49 9.899 7.333 16.409 7.333h34.96c12.204 0 22.134-9.93 22.134-22.134v-17.22h.25V63.664h-141.6v11.581h61.99v17.221c0 5.819-4.735 10.552-10.552 10.552h-51.438v11.581h51.438c6.51 0 12.355-2.843 16.409-7.333zm61.921-32.021v17.221c0 5.819-4.735 10.552-10.552 10.552h-34.96c-5.817 0-10.552-4.733-10.552-10.552V75.245h56.064zm-67.646 382.319h-62.123v11.581h61.99v17.221c0 5.819-4.735 10.552-10.552 10.552h-51.438V508.5h51.438c6.511 0 12.356-2.843 16.409-7.333 4.054 4.49 9.899 7.333 16.409 7.333h34.96c12.204 0 22.134-9.93 22.134-22.134v-17.221h.25v-11.581h-79.477zm67.646 28.802c0 5.819-4.735 10.552-10.552 10.552h-34.96c-5.817 0-10.552-4.733-10.552-10.552v-17.221h56.064v17.221zm11.966-277.613l-.135-.421v-5.791h-141.6v11.581h104.616l-104.503 33.548v.328h-.113v11.581h141.6v-11.581h-104.617L1712.4 214.37v-5.617zm-119.352 76.702h26.326v-11.922h-26.326c-12.3 0-22.304 10.005-22.304 22.304v9.983c0 12.298 10.004 22.304 22.304 22.304h26.326c7.506 0 14.369-3.794 18.362-10.15l17.556-27.948a9.709 9.709 0 018.265-4.57h26.326c5.724 0 10.382 4.658 10.382 10.382v9.983c0 5.724-4.658 10.382-10.382 10.382h-26.326v11.922h26.326c12.3 0 22.304-10.005 22.304-22.304v-9.983c0-12.298-10.004-22.304-22.304-22.304h-26.326c-7.504 0-14.366 3.793-18.362 10.149l-17.556 27.95a9.706 9.706 0 01-8.265 4.57h-26.326c-5.724 0-10.382-4.658-10.382-10.382v-9.983c.001-5.725 4.658-10.383 10.382-10.383zm-6.788-96.814l13.884-2.438 112.16-19.691V155.49l-140.517-24.671-.002.009-1.294-.227v13.15l29.427 5.166v24.167l-29.427 5.166v13.158l1.296-.227 14.473-2.54zm25.241-37.691l57.253 10.051-57.253 10.051V150.95z" fill="#fff"/></svg>