<svg xmlns="http://www.w3.org/2000/svg" viewBox="0 0 301.6 82.4"><path d="M101.8 26.2h45.8L142.2 38H98c-.1 1-.1 2-.1 3 0 1.5.1 2.9.3 4.4h40.6l-5.5 11.8h-30.6c5.2 8 14.2 13.3 24.5 13.3 8.7 0 16.6-3.9 22-10V75c-6.7 4.4-14.7 7-23.4 7-17.2 0-32-10.2-38.3-24.8H72.8l5.5-11.8h6c-.1-1.3-.2-2.7-.2-4 0-1.1.1-2.2.1-3.3h-12l5.5-11.8H87C93.1 11.4 108.1.8 125.6.8c11.2 0 21.4 4.4 28.9 11.4l-4.8 10.3c-5.4-6.6-13.5-10.8-22.7-10.8-10.7-.1-20.1 5.8-25.2 14.5z" fill="#ffc20e"/><path d="M69.1 48.4c.3 2.3.4 4.9.4 7.8 0 6.6-.6 11.5-1.9 14.6-2.3 5.7-7.5 9.2-15.5 10.7-3.4.6-8.5.9-15.4.9-11.6 0-19.6-.7-24.2-2.1-5.6-1.7-9.3-5.1-11-10.3C.5 67.2 0 62.4 0 55.7h20.6v1.7c0 3.6 1 5.9 3.1 6.9 1.4.7 3.1 1.1 5.2 1.1h7.6c3.9 0 6.3-.2 7.4-.6 1.9-.7 3.1-1.9 3.7-3.6.3-1 .5-2.3.5-4 0-3.6-1.3-5.8-4-6.6-1-.3-5.6-.7-13.8-1.3-6.6-.5-11.2-.9-13.7-1.4C9.8 46.6 5.3 44 3.1 40.1c-2-3.4-3-8.4-3-15.2 0-5.2.5-9.3 1.6-12.4C2.8 9.4 4.5 7 6.9 5.4c3.5-2.5 7.9-3.9 13.4-4.4 4.5-.4 9.5-.6 15-.6 8.7 0 14.8.5 18.5 1.5 9 2.4 13.5 9.2 13.5 20.3 0 .9-.1 2.3-.2 4.1H46.4c0-3.4-.4-5.7-1.2-6.8-1.2-1.7-4.6-2.6-10.2-2.6-5.4 0-9 .5-10.7 1.5-1.7 1-2.6 3.1-2.6 6.5 0 3 .8 5 2.3 5.9 1.1.7 2.6 1.1 4.4 1.2l4.2.3c8.9.6 14.5 1 16.7 1.2 7.1.7 12.2 2.6 15.3 5.6 2.5 2.4 4 5.5 4.5 9.3zm232.5 34h-22.5l-4.2-14.2h-29.7l-4 14.2h-23L243.1 0h33.5l25 82.4zm-31.1-30.3l-10.4-35.7L250 52.1h20.5zM154.9 11.9l.2.2-.1.2-4.8 10.3-.2.5-.4-.4c-5.5-6.8-13.7-10.7-22.4-10.7-10 0-19.4 5.3-24.7 13.9h45.8l-.2.5-5.5 11.8-.1.2H98.4c-.1.9-.1 1.7-.1 2.6 0 1.3.1 2.7.3 4h40.8l-.2.5-5.5 11.8-.1.2h-30.1c5.4 7.9 14.2 12.5 23.8 12.5 8.3 0 16.2-3.6 21.7-9.8l.6-.7v15.6l-.2.1c-7 4.6-15.1 7.1-23.6 7.1-16.8 0-31.9-9.7-38.5-24.8h-15l.2-.5L78 45.2l.1-.2H84c-.1-1.2-.2-2.5-.2-3.7 0-.9 0-1.9.1-3H71.8l.2-.5L77.5 26l.1-.2h9.3C90 18.5 95.2 12.1 102 7.6c7-4.7 15.2-7.2 23.7-7.2 11 0 21.3 4.1 29.2 11.5zm-.7.3C146.5 5 136.4 1 125.7 1c-8.4 0-16.5 2.5-23.3 7.1-6.7 4.6-11.9 10.9-14.9 18.3l-.1.2h-9.3l-5.2 11.1h11.8v.4c-.1 1.2-.1 2.3-.1 3.3 0 1.3.1 2.6.2 4v.4h-6.2l-5.2 11.1h14.3l.1.2c6.5 14.9 21.4 24.6 38 24.6 8.3 0 16.2-2.4 23-6.9V61.4c-5.6 6-13.4 9.4-21.6 9.4-10 0-19.2-5-24.8-13.4l-.4-.5h31l5.2-11.1H97.9v-.3c-.2-1.5-.3-2.9-.3-4.4 0-1 .1-2 .1-3v-.3H142l5.2-11.1h-45.9l.3-.5c5.3-9.1 15.1-14.8 25.6-14.8 8.7 0 16.9 3.8 22.6 10.5l4.4-9.7zm55 48.4c-1 .2-5.1.3-12.4.4l-3.7.1H180v21.3h-22.2V0h41.3c5.7 0 10 .5 13 1.4 6.8 2.1 11.4 6.5 13.7 13.1 1.2 3.5 1.8 8.7 1.8 15.6 0 8.4-.7 14.4-2 18-2.7 7.3-8.1 11.4-16.4 12.5zm-4.4-30.4c0-3.5-.3-6.1-.8-7.8-.8-2.4-2.7-3.8-5.7-4.3-.6-.1-2-.1-4.3-.1h-14v24h13.8c4.4-.2 7.1-.5 8-1 1.3-.7 2.2-2.2 2.6-4.3.3-1.5.4-3.6.4-6.5z" fill="#fcfcfc"/></svg>