<svg xmlns="http://www.w3.org/2000/svg" viewBox="0 0 2500 1064"><path d="M473.8 137.2C502.9 99.8 523.7 49.9 517.5 0c-43.6 2.1-95.6 29.1-126.8 64.4-27 31.2-52 83.1-45.7 130.9 49.9 6.3 97.6-20.7 128.8-58.1m43.7 70.6c-70.7-4.2-130.9 39.5-164.2 39.5s-85.2-37.4-141.3-37.4C139.2 212 72.7 251.5 35.3 318c-74.8 130.9-20.8 324.2 54 430.2 35.3 52 79 110.1 135.1 108.1 54-2.1 74.8-35.3 139.2-35.3s83.1 35.3 141.3 33.2c58.2-2.1 95.6-52 130.9-106 41.6-60.3 58.2-118.5 58.2-120.5-2.1-2.1-114.3-43.6-114.3-172.5-2.1-108.1 87.3-160 91.4-162.1-47.7-74.9-126.6-83.2-153.6-85.3M1128.4 60.3c153.8 0 259.8 106 259.8 257.7 0 153.8-108.1 259.8-263.9 259.8H955.9v268.1H833.3V60.3h295.1zM955.9 475.9h139.2c106 0 166.3-58.2 166.3-155.9 0-99.8-60.3-155.9-166.3-155.9H953.9v311.7h2zm463.5 209.9c0-99.8 76.9-162.1 214-170.4l157.9-8.3v-43.6c0-64.4-43.6-101.8-114.3-101.8-68.6 0-110.1 33.3-120.5 83.1h-112.2c6.2-103.9 95.6-180.8 236.9-180.8 139.2 0 228.6 72.7 228.6 189.1v394.8h-112.2v-93.5h-2.1c-33.2 64.4-106 103.9-180.8 103.9-116.4 0-195.3-70.7-195.3-172.5zm372-52v-45.7l-141.3 8.3c-70.7 4.2-110.1 35.3-110.1 85.2s41.6 83.1 103.9 83.1c83 .1 147.5-56.1 147.5-130.9zm222.3 426v-95.6c8.3 2.1 29.1 2.1 37.4 2.1 54 0 83.1-22.9 101.8-81 0-2.1 10.4-35.3 10.4-35.3l-207.8-573.6h126.8L2227.8 744h2.1l145.5-467.6H2500l-214 604.7c-49.9 139.2-106 182.9-224.4 182.9-8.4-2.1-37.5-2.1-47.9-4.2z" fill="#fff"/></svg>