<svg width="85" height="46" fill="none" xmlns="http://www.w3.org/2000/svg"><path d="M74.712 7v22.103l9.822-5.806L74.712 7z" fill="#B0B0B0"/><path d="M74.711 7l-9.82 16.297 9.82 5.806V7zm0 32v-8.038l-9.82-5.802L74.71 39z" fill="#fff"/><path d="M74.712 29.103l9.822-5.806-9.822-4.464v10.27z" fill="#6C6C6C"/><path d="M74.711 30.962V39l9.828-13.84-9.828 5.802zm-9.82-7.665l9.82 5.806v-10.27l-9.82 4.464z" fill="#B7B7B5"/><path d="M14.066 19.33L23 10.396l8.938 8.937 5.198-5.198L23 0 8.869 14.131l5.198 5.198zM0 23l5.198-5.199L10.396 23l-5.198 5.198L0 23zm14.066 3.671L23 35.604l8.938-8.937 5.2 5.195-.002.003L23 46 8.869 31.869l-.008-.008 5.206-5.19zm21.538-3.669l5.198-5.198L46 23.002 40.802 28.2l-5.198-5.198zm-7.332-.005h.002L23 17.723l-3.898 3.897-.448.448-.924.924-.007.007.007.008 5.27 5.27 5.274-5.274.003-.003-.005-.003" fill="#F3BA2F"/></svg>