<svg xmlns="http://www.w3.org/2000/svg" viewBox="0 0 512 512"><g transform="scale(.01563)"><linearGradient id="a" gradientUnits="userSpaceOnUse" x1="-44872.117" y1="50972.625" x2="-44872.117" y2="50971.625" gradientTransform="matrix(511.94553 0 0 -512.00513 22988462 26098246)"><stop offset="0" stop-color="#f9aa4b"/><stop offset="1" stop-color="#f7931a"/></linearGradient><path d="M32274.38 20347.393c-2188.286 8777.216-11078.142 14118.912-19856.384 11930.11C3643.34 30089.216-1698.355 21198.849 490.956 12422.146 2678.22 3643.905 11568.076-1698.304 20343.758 489.985c8777.726 2188.287 14118.914 11079.68 11930.625 19857.408h-.002z" fill="url(#a)"/><path d="M23603.66 14049.792c326.145-2180.096-1333.76-3352.063-3603.457-4133.888l736.256-2953.216-1797.633-448-716.8 2875.392c-472.577-117.76-957.952-228.864-1440.256-338.944l721.92-2894.336-1796.609-448-736.768 2952.192c-391.167-89.088-775.167-177.152-1147.904-269.824l2.048-9.216-2479.103-619.008-478.208 1920s1333.76 305.664 1305.6 324.609c728.064 181.76 859.648 663.551 837.631 1045.504l-2017.28 8090.111c-89.088 221.184-314.88 552.96-823.808 427.008 17.92 26.111-1306.624-326.145-1306.624-326.145l-892.416 2057.729 2339.328 583.168c435.2 109.056 861.696 223.232 1281.536 330.752l-743.935 2987.008 1795.584 448 736.767-2955.264c490.496 133.119 966.657 256 1432.576 371.713l-734.208 2941.44 1797.632 448 743.936-2981.378c3065.344 580.096 5370.367 346.112 6340.607-2426.367 781.824-2232.32-38.912-3520-1651.713-4359.68 1174.528-270.847 2059.264-1043.456 2295.297-2639.36h.004zm-4107.264 5759.487c-555.519 2232.32-4314.11 1025.535-5532.671 722.944l987.135-3957.248c1218.56 304.129 5126.144 906.24 4545.536 3234.304zm556.032-5791.744c-506.881 2030.592-3635.2 998.912-4649.985 745.985l894.976-3589.12c1014.784 252.927 4282.88 724.992 3755.009 2843.135z" fill="#fff"/></g></svg>