<svg version="1.2" baseProfile="tiny" xmlns="http://www.w3.org/2000/svg" viewBox="0 0 264.9 211.3" overflow="visible"><path fill="#019384" d="M48 148.8l30.8 51.8c1.9 3.3 6.7 3.3 8.6 0l30.8-51.8c2-3.3-.4-7.6-4.3-7.6H52.3c-3.9.1-6.3 4.3-4.3 7.6z"/><path fill="#DCCC94" d="M87.8 62.3l34.8 58.6c1.6 2.6 5.6 1.5 5.6-1.5V3c0-3-4-4.2-5.6-1.5L87.8 59.2c-.6 1-.6 2.1 0 3.1z"/><path fill="#84B97C" d="M52.3 132.7H114c3.9 0 6.3-4.2 4.3-7.6L87.7 73.6c-1.9-3.2-6.6-3.3-8.6 0L48 125.2c-1.9 3.3.5 7.5 4.3 7.5z"/><path fill="#02687A" d="M5 211.3h64.5c3.9 0 6.3-4.2 4.3-7.6l-32-53.9c-1.9-3.2-6.6-3.3-8.6 0L.7 203.7c-2 3.3.4 7.6 4.3 7.6z"/><path fill="#C2D473" d="M93.3 211.3h31.8c1.7 0 3-1.3 3-3v-53.6c0-3-4-4.2-5.6-1.5l-31.8 53.6c-1.1 2 .3 4.5 2.6 4.5z"/><path fill="#83494D" d="M216.9 148.8l-30.8 51.8c-1.9 3.3-6.7 3.3-8.6 0l-30.8-51.8c-2-3.3.4-7.6 4.3-7.6h61.6c3.9.1 6.3 4.3 4.3 7.6z"/><path fill="#F8DE6A" d="M177.1 62.3l-34.8 58.6c-1.6 2.6-5.6 1.5-5.6-1.5V3c0-3 4-4.2 5.6-1.5l34.8 57.8c.6.9.6 2 0 3z"/><path fill="#FFB200" d="M212.6 132.7h-61.7c-3.9 0-6.3-4.2-4.3-7.6l30.7-51.6c1.9-3.2 6.6-3.3 8.6 0l31.1 51.6c1.8 3.4-.6 7.6-4.4 7.6z"/><path fill="#AD082E" d="M259.9 211.3h-64.5c-3.9 0-6.3-4.2-4.3-7.6l32-53.9c1.9-3.2 6.6-3.3 8.6 0l32.5 53.9c2 3.3-.4 7.6-4.3 7.6z"/><path fill="#DC6F37" d="M171.6 211.3h-31.8c-1.7 0-3-1.3-3-3v-53.6c0-3 4-4.2 5.6-1.5l31.8 53.6c1.1 2-.3 4.5-2.6 4.5z"/></svg>