<svg xmlns="http://www.w3.org/2000/svg" viewBox="0 0 170 170.4"><path d="M164 0v170h4c1.1 0 2-.9 2-2V2c0-1.1-.9-2-2-2h-4zM2 170h4V0H2C.9 0 0 .9 0 2v166c0 1.1.9 2 2 2m88.6-89h4V0h-4v81zm20.9 0h12V0h-12v81zm36.5 0h6V0h-6v81zm-75.7 0h4V0h-4v81zm-10.8 0h6V0h-6v81zm-20.3 0h10V0h-10v81zM16 81h6V0h-6v81zm112 0h4V0h-4v81zm-55.7 89h4v-19h-4v19zm-10.8 0h6v-19h-6v19zm-20.3 0h10v-19h-10v19zM16 170h6v-19h-6v19zm21.8-62.6c.1 2.2-.8 4.4-2.3 6a7.7 7.7 0 01-5.9 2.4H16.8c-.4.1-.8-.2-.8-.6V90.6c0-.6.3-.9.8-.9h9.9c2-.1 3.9.6 5.3 2 1.4 1.2 2.1 3 2.1 4.8 0 1.1-.3 2.2-.9 3.2 2.8 1.5 4.7 4.5 4.6 7.7M20.3 93.7v5.1H29c.5-.6.8-1.3.8-2.1.1-1.6-1.2-2.9-2.7-3H20.3zm8.7 18.1c2.5 0 4.5-2.1 4.5-4.6 0-2.5-2-4.5-4.5-4.5h-8.8v9.1H29zm25.7 4.5c-7.4.1-13.4-5.8-13.5-13.2v-.3c-.1-7.4 5.9-13.5 13.3-13.5h.2c7.4 0 13.5 6 13.5 13.4v.1c.1 7.4-5.9 13.5-13.3 13.5h-.2m0-4.2c2.5.1 4.8-.9 6.6-2.6 1.8-1.8 2.8-4.2 2.7-6.7.1-2.5-.9-4.9-2.7-6.7-1.7-1.8-4.1-2.7-6.6-2.7-2.5-.1-4.9.9-6.6 2.7-1.8 1.8-2.7 4.2-2.6 6.7-.1 2.5.9 4.9 2.6 6.7 1.7 1.7 4.1 2.6 6.6 2.6m31.5-.4c.6 0 .9.3.9.8v2.5c0 .6-.3.8-.9.8h-13c-.4.1-.8-.2-.8-.6V90.5c-.1-.4.2-.8.6-.8H75.8c.6 0 .9.3.9.8v21.2h9.5zm18.8 0c.4-.1.8.2.8.6v2.7c.1.4-.2.8-.6.8H91.4c-.4.1-.8-.2-.8-.6V90.5c-.1-.4.2-.8.6-.8h13.6c.6 0 .9.3.9.8V93c0 .6-.3.8-.9.8h-9.9v6.8h9c.6 0 .8.3.8.9v2.3c.1.4-.2.8-.6.8h-9.2v7.1H105zm20.7-22c.6 0 .9.3.9.8V93c0 .6-.3.8-.9.8H120V115c0 .6-.3.8-.9.8h-2.6c-.6 0-.9-.3-.9-.8V93.8h-5.7c-.6 0-.9-.3-.9-.8v-2.5c0-.6.3-.8.9-.8h15.8zm15.6 26.6c-7.4.1-13.4-5.8-13.5-13.2v-.3c0-7.5 6-13.6 13.5-13.6s13.6 6 13.6 13.5c.1 7.5-6 13.5-13.6 13.6.1 0 .1 0 0 0m0-4.2c2.5.1 4.8-.9 6.6-2.6 1.8-1.8 2.8-4.2 2.7-6.7.1-2.5-.9-4.9-2.7-6.7-1.7-1.8-4.1-2.7-6.6-2.7-2.5-.1-4.9.9-6.6 2.7-1.8 1.8-2.7 4.2-2.6 6.7-.1 2.5.9 4.9 2.6 6.7 1.8 1.7 4.2 2.6 6.6 2.6m-109 24.8c0 1.6-.6 3.2-1.8 4.4-1.1 1.2-2.7 1.8-4.3 1.8h-9.5c-.3 0-.6-.2-.7-.5V124.5c0-.3.2-.6.5-.7H24c1.5-.1 3 .5 4.1 1.5 1 .9 1.6 2.3 1.6 3.7 0 .8-.2 1.6-.7 2.3 2 1.1 3.3 3.2 3.3 5.6m-12.5-9.6v3.2h5.5c.8-.7.8-1.9.1-2.7-.4-.4-.9-.6-1.4-.6h-4.2zm5.9 12.2c1.5 0 2.8-1.3 2.7-2.8 0-1.5-1.2-2.7-2.7-2.7h-6v5.5h6zm25.1 2.8c.1.5-.1.7-.5.7h-2.7c-.3 0-.7-.2-.7-.5l-.9-2.9h-7.4l-.9 2.9c-.1.3-.4.6-.7.5h-2.8c-.5 0-.7-.3-.5-.7l6.1-17.9c.1-.3.4-.6.8-.5H44c.3 0 .7.2.7.5l6.1 17.9zM39.6 136h5.1l-2.6-8-2.5 8zm24.1-11.5c0-.3.2-.6.5-.7h2.7c.3 0 .6.2.7.5V142.4c0 .3-.2.6-.5.7h-1.9c-.3 0-.6-.1-.8-.4l-7.2-11.4v11.2c0 .3-.2.6-.5.7H54c-.3 0-.6-.2-.7-.5V124.6c0-.3.2-.6.5-.7h1.9c.3 0 .6.1.8.4l7.2 11.4v-11.2zm7.1 8.9c-.1-5.4 4.2-9.9 9.6-10h.4c2.1 0 4.1.6 5.7 1.8 1.6 1.1 2.8 2.8 3.4 4.7.1.3 0 .6-.3.7h-3c-.3 0-.6-.2-.7-.5-1-1.9-3-3.1-5.2-3-1.7-.1-3.3.6-4.5 1.8-2.3 2.6-2.3 6.5 0 9.1 1.2 1.2 2.8 1.8 4.5 1.8 2.2.1 4.2-1.1 5.2-3 .1-.3.4-.5.7-.5h2.7c.3 0 .5.1.6.4v.3c-.6 1.9-1.7 3.6-3.4 4.7-1.7 1.2-3.7 1.8-5.8 1.8-5.4.1-9.9-4.2-10-9.6.1-.2.1-.4.1-.5m37.4 8.9c.1.5-.1.7-.5.7H105c-.3 0-.7-.2-.7-.5l-.9-2.9H96l-.9 2.9c-.1.3-.4.6-.7.5h-2.8c-.5 0-.7-.3-.5-.7l6.1-17.9c.1-.3.4-.6.8-.5h3.5c.3 0 .7.2.7.5l6 17.9zM97 136h5.1l-2.6-8-2.5 8zm29 6.2c.3.4.2.8-.4.8h-2.9c-.3 0-.6-.1-.8-.4l-5.1-6.3h-2.3v6c0 .3-.2.6-.5.7h-2.7c-.3 0-.6-.2-.7-.5V124.4c0-.3.2-.6.5-.7h6.8c3.4-.1 6.3 2.7 6.4 6.1.1 2.5-1.4 4.7-3.6 5.8l5.3 6.6zm-11.5-14.9v5.7h3.5c1.6-.1 2.7-1.5 2.6-3.1-.1-1.4-1.2-2.5-2.6-2.6h-3.5zm14-2.8c0-.3.2-.6.5-.7h2.7c.3 0 .6.2.6.5V142.4c0 .3-.2.6-.5.7h-2.7c-.3 0-.6-.2-.7-.5V124.5zm16.4 18.9c-5.5 0-10-4.5-10-10s4.5-10 10-10c3.5 0 6.8 1.9 8.6 4.9.9 1.5 1.4 3.3 1.3 5 0 5.5-4.3 9.9-9.8 10 0 .1 0 .1-.1.1m6.2-10c.1-1.7-.6-3.3-1.8-4.5-2.5-2.4-6.4-2.4-8.8 0-2.4 2.5-2.4 6.5 0 9 1.2 1.2 2.8 1.8 4.4 1.8 3.4.1 6.1-2.6 6.2-6v-.3m-53-11c-.4 0-.6-.3-.4-.7l1.3-2.3c.1-.3.4-.4.7-.4h2.8c.5 0 .6.3.3.7L101 122c-.2.2-.4.3-.7.3l-2.2.1zm-6.9 38c-.1-5.4 4.2-9.9 9.6-10h.4c2.1 0 4.1.6 5.7 1.8 1.6 1.1 2.8 2.8 3.4 4.7.1.3 0 .6-.3.7h-3c-.3 0-.6-.2-.7-.5-1-1.9-3-3.1-5.2-3-1.7-.1-3.3.6-4.5 1.8-2.3 2.6-2.3 6.5 0 9.1 1.2 1.2 2.8 1.8 4.5 1.8 2.2.1 4.2-1.1 5.2-3 .1-.3.4-.5.7-.5h2.7c.3 0 .5.1.6.4v.3c-.6 1.9-1.7 3.6-3.4 4.7-1.7 1.2-3.7 1.8-5.8 1.8-5.4.1-9.9-4.2-10-9.6.1-.2.1-.4.1-.5m31.1 10c-5.5 0-10-4.5-10-10s4.5-10 10-10c3.5 0 6.8 1.9 8.6 4.9.9 1.5 1.4 3.3 1.3 5 0 5.5-4.3 9.9-9.8 10 0 .1 0 .1-.1.1m6.2-10c.1-1.7-.6-3.3-1.8-4.5-2.5-2.4-6.4-2.4-8.8 0-2.4 2.5-2.4 6.5 0 9 1.2 1.2 2.8 1.8 4.4 1.8 3.4.1 6.1-2.6 6.2-6v-.3m24.8-9.6c.3 0 .6.2.7.5V169.4c0 .3-.2.6-.5.7h-2.7c-.3 0-.6-.2-.7-.5V157.2l-4 9.3c-.1.3-.4.5-.7.5h-1.7c-.3 0-.6-.2-.7-.5l-4.1-9.3v12.2c0 .3-.2.6-.5.7h-2.7c-.3 0-.6-.2-.7-.5V151.5c0-.3.2-.6.5-.7H138.8c.3 0 .7.2.8.5l4.9 11.2 4.9-11.2c.1-.3.4-.5.8-.5h3.1zM86 166h4v4h-4v-4z" fill="#fff"/></svg>