<svg xmlns="http://www.w3.org/2000/svg" viewBox="0 0 96.83 81.85"><path d="M20.78 35.2h9.19a12.966 12.966 0 01-12.96 12.97h-4.04A12.968 12.968 0 010 35.2V21.39A12.968 12.968 0 0112.97 8.42h4.04a12.966 12.966 0 0112.96 12.97h-9.19a5.629 5.629 0 00-1.58-3.04 5.728 5.728 0 00-9.77 4.05v11.79a5.719 5.719 0 0011.35 1.01zM44.29 16.68v6.56h15.16v9.6H44.29v7.08H61.3v8.25H34.52V0h9.77v8.42H61.3v8.26H44.29zM86.05 8.42H67.53v39.75h9.6V33.69h8.92a10.778 10.778 0 0010.78-10.78V19.2A10.778 10.778 0 0086.05 8.42zM83.19 25.1h-5.56v-8.42h5.56a4.21 4.21 0 110 8.42zM96.83 81.85h-7.58l-7.02-11.41-1.73 1.98v9.43h-6.57V54.57h6.57V64l8.08-9.43h7.58l-9.22 10.51 9.89 16.77zM69.88 54.57v27.28h-6.12l-8.77-13.64v13.64h-6.56V54.57h5.89l9.22 13.64V54.57h6.34zM35.73 54.57h-4.98l-9.89 27.28h6.67l1.44-4.19h8.54l1.44 4.19h6.67zm-5.71 17.85l3.16-7.65.06.14.06-.14 3.16 7.65zM13.85 67.76v-.13a6.546 6.546 0 00-.63-13.06H0v27.28h12.67a7.094 7.094 0 001.18-14.09zm-7.64-7.77h4.39a2.731 2.731 0 012.72 2.72 2.714 2.714 0 01-2.72 2.71H6.21zm4.39 16.25H6.21V70.8h4.39a2.714 2.714 0 011.92.8 2.673 2.673 0 01.8 1.92 2.723 2.723 0 01-2.72 2.72z" fill="#6ab31b"/></svg>