<svg xmlns="http://www.w3.org/2000/svg" viewBox="0 0 97.28 120"><path d="M0 26.12l14.53 26v15.82L0 93.86z" fill="#5b57a2"/><path d="M55.8 42.64l13.61-8.34h27.87L55.8 59.68z" fill="#d90751"/><path d="M55.72 26l.08 34.39-14.57-9V0l14.49 26z" fill="#fab718"/><path d="M97.28 34.27H69.41L55.72 26 41.23 0l56.05 34.27z" fill="#ed6f26"/><path d="M55.8 94V77.32l-14.57-8.78V120z" fill="#63b22f"/><path d="M69.38 85.74L14.53 52.1 0 26.12 97.22 85.7H69.38z" fill="#1487c9"/><path d="M41.24 120L55.8 94l13.58-8.27h27.84z" fill="#017f36"/><path d="M0 93.86l41.35-25.32L27.45 60l-12.92 7.94z" fill="#984995"/></svg>