<svg xmlns="http://www.w3.org/2000/svg" viewBox="0 0 28 28"><path d="M0 28h9.333v-9.333H0V28zm1.333-8H8v6.667H1.333V20zm20 0h4v1.333h-4v1.323h1.228v2.664h-1.332v-2.654H20V20h-1.333v-1.333h-1.333V20h1.333v1.333h-1.333V24H16v-2.667h-1.333V20H16v-1.333h-1.326l-.008-1.333h4V16H20v2.667h1.333V20zM8 16h1.333v1.333h-4V16H2.667v1.333H0v-4h1.333v1.333h5.333v-1.333h2.667v1.333H8V16zm18.667-2.667v1.333h-1.333V16h-4v-4h1.333v1.333H24C23.981 12.92 24 12 24 12s-.96.025-1.333 0v-1.333h4V12h-1.333v1.333h1.333zm0 1.334H28v4h-1.333V20h-1.333v-1.333h-2.667v-1.333h4v-2.667zM13.333 1.333H12V.005L17.333 0v1.333H16v1.333h-2.667V1.333zM12 16H9.333v-1.333h1.333v-1.333c.458-.011 1.333 0 1.333 0v1.333l2.679.009L14.667 16h-1.333v1.333l-1.322.01L12 16zm13.333 8H28v1.333h-2.667v1.333h-2.667v-1.333H24v-2.667h1.333V24zM2.667 21.333h4v4h-4v-4zM9.333.005H0v9.333h9.333V.005zM8 8.005H1.333V1.338H8v6.667zM6.667 6.671h-4v-4h4v4zm12-6.666v9.333H28V.005h-9.333zm8 8H20V1.338h6.667v6.667zm-1.334-1.334h-4v-4h4v4zM6.667 12v1.333h-4V12h4zm5.24 14.652h7.991v1.332h-7.991v-1.332zm-.024-21.31h-1.308V1.348h1.331v3.994h3.996V4.011h1.332v6.659h-1.332V9.343h-2.664V8.006h2.664V6.68h-4.019V5.342zm.024 6.66h-1.332v-3.99h1.332v3.99zm0 1.327v-1.327h2.664v1.327h-2.664zm3.995-1.327h1.332v3.995h-1.332v-3.995zm-1.319 11.977l-2.697.01v-2.664h1.346v1.332h1.351v1.322zm-2.67-5.318h2.665v1.311h-2.665v-1.311z" fill="#fff"/></svg>