<svg baseProfile="basic" xmlns="http://www.w3.org/2000/svg" viewBox="0 0 84.7 28.9"><linearGradient id="a" gradientUnits="userSpaceOnUse" x1="1415.753" y1="-2005.416" x2="1531.828" y2="-2032.951" gradientTransform="matrix(.1629 0 0 -.1629 -220.129 -314.04)"><stop offset="0" stop-color="#9237a2"/><stop offset=".598" stop-color="#882772"/><stop offset="1" stop-color="#8c2d83"/></linearGradient><path fill="url(#a)" d="M22.8 28.9H12L23.8 0l5.4 13.2-6.4 15.7z"/><linearGradient id="b" gradientUnits="userSpaceOnUse" x1="1578.884" y1="-1992.133" x2="1725.669" y2="-2037.867" gradientTransform="matrix(.1629 0 0 -.1629 -220.129 -314.04)"><stop offset="0" stop-color="#9237a2"/><stop offset=".598" stop-color="#882772"/><stop offset="1" stop-color="#8c2d83"/></linearGradient><path fill="url(#b)" d="M49.1 28.9H38.3L50.2 0H61L49.1 28.9z"/><linearGradient id="c" gradientUnits="userSpaceOnUse" x1="1724.394" y1="-1992.133" x2="1871.178" y2="-2037.868" gradientTransform="matrix(.1629 0 0 -.1629 -220.129 -314.04)"><stop offset="0" stop-color="#9237a2"/><stop offset=".598" stop-color="#882772"/><stop offset="1" stop-color="#8c2d83"/></linearGradient><path fill="url(#c)" d="M72.8 28.9H62L73.9 0h10.8L72.8 28.9z"/><linearGradient id="d" gradientUnits="userSpaceOnUse" x1="1490.343" y1="-2016.139" x2="1351.136" y2="-2016.139" gradientTransform="matrix(.1629 0 0 -.1629 -220.129 -314.04)"><stop offset="0" stop-color="#833ab4"/><stop offset=".5" stop-color="#fd1d1d"/><stop offset="1" stop-color="#fcb045"/></linearGradient><path fill="url(#d)" d="M11.9 28.9h10.8L10.8 0H0l11.9 28.9z"/><linearGradient id="e" gradientUnits="userSpaceOnUse" x1="1652.365" y1="-2016.139" x2="1513.157" y2="-2016.139" gradientTransform="matrix(.1629 0 0 -.1629 -220.129 -314.04)"><stop offset="0" stop-color="#833ab4"/><stop offset=".5" stop-color="#fd1d1d"/><stop offset="1" stop-color="#fcb045"/></linearGradient><path fill="url(#e)" d="M38.3 28.9h10.8L37.2 0H26.4l11.9 28.9z"/><linearGradient id="f" gradientUnits="userSpaceOnUse" x1="1798.301" y1="-2016.139" x2="1659.092" y2="-2016.139" gradientTransform="matrix(.1629 0 0 -.1629 -220.129 -314.04)"><stop offset="0" stop-color="#833ab4"/><stop offset=".5" stop-color="#fd1d1d"/><stop offset="1" stop-color="#fcb045"/></linearGradient><path fill="url(#f)" d="M62 28.9h10.8L61 0H50.2L62 28.9z"/></svg>