<svg xmlns="http://www.w3.org/2000/svg" viewBox="0 0 885.9 448.9"><path d="M.7 49.3C.7 22.1 22.6 0 49.6 0H837c27 0 48.8 22.1 48.8 49.3v1.6H.6l.1-1.6zm885.2 349.1v1.2c0 27.2-21.9 49.3-48.8 49.3H49.5c-27 0-48.9-22.1-48.9-49.3v-1.2h885.3z" fill="#fbb110"/><path d="M613.3 224c0 68.9 55.4 124.8 123.7 124.8S860.7 292.9 860.7 224 805.3 99.2 737 99.2C668.7 99.1 613.3 155 613.3 224zm-589.6 0c0 68.9 55.4 124.8 123.7 124.8S271.1 292.9 271.1 224 215.7 99.2 147.4 99.2C79.1 99.1 23.7 155 23.7 224zm862.2 150.8H276.1c11-7.8 21.2-18.4 32.4-32.8l62.1-80 27.1 34.6 30.2-40.5-26.4-33.9 63.2-81.4c20.1-25.8-18.3-56.2-38.4-30.4l-55.9 72-56.8-72.9c-20.1-25.8-58.4 4.7-38.3 30.5l64.2 82.3-69.5 89.4c-24.7 31.8-49.3 60.9-98.2 63.2H.5V74.7H607c-10.4 7.7-20.3 18-30.9 31.8l-62.1 80-27.2-34.6-30.2 40.5 26.4 33.9-63.2 81.4c-20.1 25.8 18.3 56.2 38.4 30.4l55.9-72 56.8 72.9c20.1 25.8 58.4-4.7 38.3-30.4L545 226.3l69.5-89.4c22.7-29.2 45.3-56.2 86.8-62.1h184.6v300zM662.9 224c0-41.3 33.2-74.7 74-74.7s74 33.4 74 74.7-33.1 74.7-74 74.7-74-33.5-74-74.7zm-589.6 0c0-41.3 33.2-74.7 74-74.7 40.9 0 74 33.4 74 74.7s-33.2 74.7-74 74.7-74-33.5-74-74.7" fill="#e70020"/></svg>