<svg width="74" height="54" fill="none" xmlns="http://www.w3.org/2000/svg"><path d="M69 14H19c-2.762 0-5 2.238-5 5v30c0 2.763 2.238 5 5 5h50c2.762 0 5-2.237 5-5V19c0-2.762-2.238-5-5-5z" fill="url(#paint0_linear)"/><path d="M19 14.5h50c2.486 0 4.5 2.014 4.5 4.5v30c0 2.486-2.014 4.5-4.5 4.5H19a4.499 4.499 0 01-4.5-4.5V19c0-2.486 2.014-4.5 4.5-4.5z" stroke="#fff" stroke-opacity=".2"/><path d="M55 0H5C2.237 0 0 2.237 0 5v30c0 2.763 2.237 5 5 5h50c2.762 0 5-2.237 5-5V5c0-2.763-2.238-5-5-5z" fill="url(#paint1_linear)"/><path d="M5 .5h50c2.486 0 4.5 2.014 4.5 4.5v30c0 2.486-2.014 4.5-4.5 4.5H5A4.499 4.499 0 01.5 35V5C.5 2.514 2.514.5 5 .5z" stroke="#fff" stroke-opacity=".2"/><path d="M51 37a4.01 4.01 0 01-4-4c0-2.201 1.799-4 4-4s4 1.799 4 4-1.786 4-4 4z" fill="#fff" fill-opacity=".5"/><path d="M43 33c0-2.591 2.455-4.491 5-3.887a4.697 4.697 0 000 7.775c-2.557.604-5-1.309-5-3.888z" fill="#fff" fill-opacity=".5"/><path d="M6.48 17c.933 0 1.473-.56 1.473-1.55v-2.06H9.85c2.583 0 4.36-1.632 4.36-4.13 0-2.516-1.689-4.147-4.183-4.147H6.48c-.933 0-1.48.568-1.48 1.558v8.78C5 16.44 5.547 17 6.48 17zm1.473-5.85V7.393h1.295c1.239 0 1.979.658 1.979 1.875 0 1.225-.74 1.882-1.995 1.882h-1.28zM16.778 17h6.436c.748 0 1.183-.462 1.183-1.144 0-.698-.435-1.144-1.183-1.144H19.2v-.057l2.308-2.126c1.843-1.68 2.599-2.54 2.599-4.04 0-2.07-1.738-3.489-4.384-3.489-2.116 0-3.661 1.03-4.168 2.377-.088.211-.12.422-.12.65 0 .73.458 1.176 1.222 1.176.596 0 .942-.235 1.312-.812.426-.778.949-1.152 1.713-1.152.925 0 1.569.6 1.569 1.445 0 .762-.37 1.298-1.73 2.547l-3.314 3.035c-.58.503-.813.9-.813 1.46 0 .739.435 1.274 1.384 1.274zm10.49 0c.934 0 1.473-.56 1.473-1.55v-2.06h1.899c2.582 0 4.36-1.632 4.36-4.13 0-2.516-1.69-4.147-4.183-4.147h-3.548c-.933 0-1.48.568-1.48 1.558v8.78c0 .99.546 1.549 1.48 1.549zm1.473-5.85V7.393h1.295c1.24 0 1.98.658 1.98 1.875 0 1.225-.74 1.882-1.996 1.882h-1.279z" fill="#fff" fill-opacity=".8"/><path d="M69.67 7.895c-.254.306-.534.597-.801.888-.28.291-.561.611-.841.903-.28.305-.574.61-.854.917-.214.232-.441.465-.655.713-.093.102-.186.19-.266.291a1.169 1.169 0 01-1.749 0 1.386 1.386 0 01-.36-.946c0-.35.12-.684.36-.946l1.268-1.369h-10.53C54.56 8.346 54 7.75 54 7.022c0-.728.56-1.325 1.241-1.325h10.531l-1.321-1.412a1.386 1.386 0 01-.36-.946c0-.335.12-.684.36-.946a1.169 1.169 0 011.748 0c.134.146.267.277.4.422.28.291.548.582.828.873.32.35.64.7.974 1.049.267.29.548.582.815.873.226.233.48.48.627.771a1.34 1.34 0 01-.173 1.514zM18.746 48.35H8.221l1.267 1.373c.48.525.48 1.372 0 1.883a1.165 1.165 0 01-1.747 0l-3.388-3.65a1.82 1.82 0 01-.147-.19 1.416 1.416 0 01-.2-.875c.026-.307.16-.599.36-.818l3.428-3.679a1.166 1.166 0 011.748 0c.48.526.48 1.372 0 1.883L8.234 45.68H18.76c.68 0 1.241.598 1.241 1.328-.027.745-.574 1.343-1.254 1.343z" fill="#fff"/><defs><linearGradient id="paint0_linear" x1="14" y1="14" x2="74" y2="54" gradientUnits="userSpaceOnUse"><stop stop-color="#84BC3C"/><stop offset="1" stop-color="#9BD74D"/></linearGradient><linearGradient id="paint1_linear" x1="0" y1="0" x2="60" y2="40" gradientUnits="userSpaceOnUse"><stop stop-color="#FF946B"/><stop offset="1" stop-color="#F28829"/></linearGradient></defs></svg>