<svg xmlns="http://www.w3.org/2000/svg" viewBox="0 0 900 900"><path d="M701.8 688.5h16.3L546.7 859.9c-53.4 53.4-140 53.4-193.4 0l-171-171h26.6c35.3 0 68.5-13.7 93.5-38.7l135.5-135.5c9.5-9.5 26-9.5 35.5 0l135 135c24.9 25 58.1 38.8 93.4 38.8zM208.9 211c35.3 0 68.5 13.8 93.5 38.7l135.5 135.5c9.8 9.8 25.7 9.8 35.5 0l135-135c25-25 58.2-38.7 93.5-38.7h16.3L546.7 40c-53.4-53.4-140-53.4-193.4 0l-171 171h26.6zm651 142.3L756.3 249.7c-2.3.9-4.8 1.5-7.4 1.5h-47.1c-24.4 0-48.2 9.9-65.4 27.1l-135 135c-12.6 12.6-29.2 19-45.8 19-16.6 0-33.2-6.3-45.8-18.9L274.3 277.8c-17.2-17.2-41-27.1-65.4-27.1H151c-2.5 0-4.8-.6-7-1.4l-104 104c-53.4 53.4-53.4 140 0 193.4l104 104c2.2-.8 4.5-1.4 7-1.4h57.9c24.4 0 48.2-9.9 65.4-27.1l135.5-135.5c24.5-24.5 67.2-24.5 91.6 0l135 135c17.2 17.2 41 27.1 65.4 27.1h47.1c2.6 0 5.1.6 7.4 1.5l103.6-103.6c53.4-53.4 53.4-140 0-193.4z" fill="#32bcad"/></svg>