<svg xmlns="http://www.w3.org/2000/svg" width="300" height="105.089"><defs><clipPath id="a"><path d="M.015 77.456h226.757V.015H.015v77.441z"/></clipPath></defs><g clip-path="url(#a)" transform="matrix(1.30536 0 0 -1.30536 1.98 103.108)"><path d="M162.891 58.847c5.141 0 9.308 4.165 9.308 9.302 0 5.138-4.167 9.307-9.308 9.307-5.135 0-9.3-4.169-9.3-9.307 0-5.137 4.165-9.302 9.3-9.302zm-71.288-5.022c-.419-1.056-3.442-9.595-10.753-18.445v37.842l-19.48-3.851V.781h19.48v21.202C86.492 13.521 89.278.781 89.278.781h23.333c-2.308 9.594-12.404 27.287-12.404 27.287 9.061 11.488 13.041 23.728 13.674 25.757H91.603zm51.213.715c-17.448-.56-26.305-8.388-26.305-23.949V.781h19.035V25.09c0 9.319 1.22 13.313 12.277 13.693v15.484c-1.861.395-5.007.273-5.007.273zM28.7 46.272c-2.386.157-7.91.513-7.91 5.486 0 6.001 7.953 6.001 10.936 6.001 5.245 0 12.038-1.549 16.889-3 0 0 2.706-.954 5.008-1.932l.215-.058v16.435l-.294.087c-5.725 2.003-12.382 3.931-24.724 3.931C7.54 73.222 0 60.825 0 50.204c0-6.122 2.623-20.53 26.995-22.192 2.066-.127 7.548-.442 7.548-5.582 0-4.243-4.488-6.745-12.038-6.745-8.274 0-16.3 2.11-21.175 4.111V2.869C8.628.956 16.855 0 26.497 0c20.807 0 30.126 11.73 30.126 23.355 0 13.181-10.428 21.744-27.923 22.917zM153.455.781h18.881v52.984h-18.881V.781zm54.433 69.063V.781h18.884v72.441l-18.884-3.378zm-27.554 0l18.866 3.378V.781h-18.866v69.063" fill="#811963"/></g></svg>