<svg xmlns="http://www.w3.org/2000/svg" viewBox="0 0 38 38"><g fill="#f0efef"><path d="M1.123 17.263c0-.876.407-1.546 1.224-2.01.815-.465 1.853-.697 3.113-.697 1.5 0 2.787.245 3.86.736v2.234c-.985-.596-2.19-.885-3.614-.867-.975.008-1.462.206-1.462.591 0 .184.148.348.444.493.295.144.665.267 1.109.368.443.1.922.236 1.437.407.515.171.994.362 1.438.572.444.21.813.51 1.109.9.296.39.443.84.443 1.348 0 1.875-1.533 2.812-4.6 2.812-1.676 0-3.149-.28-4.42-.84v-2.3c1.26.691 2.657 1.037 4.19 1.037.613 0 1.052-.046 1.315-.138.262-.092.394-.251.394-.48 0-.236-.205-.442-.616-.617s-.91-.34-1.495-.493a20.747 20.747 0 01-1.758-.545 3.82 3.82 0 01-1.495-.96 2.163 2.163 0 01-.616-1.55zM24.485 14.753v9.2h-3.04v-4.89l-2.464 3.024H17.24l-2.465-3.036v4.902h-3.04v-9.2h2.876l3.5 4.31 3.5-4.31h2.874zM26.243 17.263c0-.876.408-1.546 1.224-2.01.816-.465 1.854-.697 3.114-.697 1.5 0 2.787.245 3.86.736v2.234c-.985-.596-2.19-.885-3.614-.867-.975.008-1.462.206-1.462.591 0 .184.148.348.443.493.296.144.666.267 1.11.368.443.1.922.236 1.437.407.515.171.994.362 1.438.572.443.21.813.51 1.109.9.295.39.443.84.443 1.348 0 1.875-1.533 2.812-4.6 2.812-1.676 0-3.15-.28-4.42-.84v-2.3c1.26.691 2.656 1.037 4.19 1.037.613 0 1.051-.046 1.314-.138.263-.092.395-.251.395-.48 0-.236-.206-.442-.617-.617-.41-.175-.909-.34-1.495-.493a20.747 20.747 0 01-1.758-.545 3.82 3.82 0 01-1.495-.96 2.163 2.163 0 01-.616-1.55z"/></g></svg>