<svg width="85" height="46" fill="none" xmlns="http://www.w3.org/2000/svg"><path fill-rule="evenodd" clip-rule="evenodd" d="M41.415 19.734c0 1.377-4.943 2.53-11.568 2.823l.006.001c-.187.015-1.155.072-3.315.072-1.717 0-2.937-.052-3.365-.072-3.318-.146-6.216-.506-8.285-1.003-2.069-.499-3.308-1.132-3.308-1.821 0-1.38 4.955-2.532 11.593-2.828v4.504c.435.03 1.677.104 3.395.104 2.062 0 3.094-.086 3.28-.103v-4.502c6.623.295 11.567 1.447 11.567 2.825zm11.462 1.204l-26.101 24.95a.397.397 0 01-.552 0L.124 20.937a.394.394 0 01-.085-.458L9.704.226A.39.39 0 0110.062 0H42.94c.153 0 .292.089.356.227L52.96 20.48a.393.393 0 01-.084.458zm-9.89-.89c0-1.777-5.633-3.26-13.134-3.606v-4.029h9.245V6.267h-25.17v6.146h9.244v4.029c-7.513.344-13.162 1.828-13.162 3.608s5.65 3.263 13.162 3.609v12.914h6.68v-12.92c7.495-.344 13.135-1.827 13.135-3.604z" fill="#4DDBAF"/><path d="M84.674 18.23c-1.184-1.038-2.822-2.625-4.155-3.75l-.08-.052a1.53 1.53 0 00-.437-.233c-3.216-.57-18.181-3.228-18.473-3.195a.57.57 0 00-.23.083l-.074.056a.831.831 0 00-.205.315l-.02.049v.307c1.685 4.459 8.337 19.065 9.647 22.493.079.232.229.675.509.697h.063c.15 0 .79-.803.79-.803s11.426-13.17 12.582-14.572c.15-.173.282-.358.394-.555a.861.861 0 00-.04-.459.905.905 0 00-.271-.38zm-9.734 1.534l4.877-3.844 2.86 2.505-7.737 1.339zm-1.894-.251l-8.396-6.54 13.584 2.381-5.188 4.159zm.757 1.713l8.594-1.316-9.825 11.25 1.231-9.934zm-10.294-7.6l8.835 7.124-1.279 10.418-7.556-17.543z" fill="#FF060A"/></svg>