<svg width="85" height="46" fill="none" xmlns="http://www.w3.org/2000/svg"><path fill-rule="evenodd" clip-rule="evenodd" d="M41.59 19.734c0 1.377-4.942 2.53-11.567 2.823l.006.001c-.188.015-1.156.072-3.315.072-1.718 0-2.938-.052-3.365-.072-3.318-.146-6.216-.506-8.285-1.003-2.07-.499-3.308-1.132-3.308-1.821 0-1.38 4.955-2.532 11.593-2.828v4.504c.434.03 1.677.104 3.395.104 2.061 0 3.094-.086 3.28-.103v-4.502c6.623.295 11.566 1.447 11.566 2.825zm11.462 1.204l-26.1 24.95a.397.397 0 01-.552 0L.3 20.937a.394.394 0 01-.085-.458L9.879.226A.39.39 0 0110.24 0h32.877c.153 0 .292.089.356.227l9.664 20.253a.393.393 0 01-.084.458zm-9.889-.89c0-1.777-5.633-3.26-13.134-3.606v-4.029h9.245V6.267h-25.17v6.146h9.244v4.029c-7.513.344-13.162 1.828-13.162 3.608s5.649 3.263 13.162 3.609v12.914h6.68v-12.92c7.495-.344 13.135-1.827 13.135-3.604z" fill="#4DDBAF"/><path d="M74.997 7v22.103l9.822-5.806L74.997 7z" fill="#B0B0B0"/><path d="M74.997 7l-9.821 16.297 9.821 5.806V7zm0 32v-8.038l-9.821-5.802L74.997 39z" fill="#fff"/><path d="M74.997 29.103l9.822-5.806-9.822-4.464v10.27z" fill="#6C6C6C"/><path d="M74.997 30.962V39l9.828-13.84-9.828 5.802zm-9.821-7.665l9.821 5.806v-10.27l-9.821 4.464z" fill="#B7B7B5"/></svg>