<svg width="52" height="52" fill="none" xmlns="http://www.w3.org/2000/svg"><g clip-path="url(#clip0_4222_176089)"><path d="M51.295 15.665c-2.566-2.248-6.115-5.687-9.003-8.124l-.173-.113a3.314 3.314 0 00-.947-.505C34.204 5.688 1.779-.07 1.146.001a1.235 1.235 0 00-.498.18L.488.3a1.8 1.8 0 00-.445.683L0 1.09v.666c3.65 9.66 18.064 41.307 20.902 48.734.171.502.496 1.462 1.103 1.51h.137c.325 0 1.711-1.74 1.711-1.74S48.61 21.726 51.115 18.688c.325-.375.61-.776.853-1.203a1.865 1.865 0 00-.086-.994 1.962 1.962 0 00-.587-.823v-.002zM30.204 18.99L40.77 10.66l6.197 5.428-16.764 2.901zm-4.104-.544L7.908 4.275l29.433 5.16-11.24 9.01zm1.64 3.712l18.621-2.852L25.073 43.68l2.667-21.523zM5.436 5.69L24.58 21.125l-2.771 22.572L5.436 5.688v.002z" fill="#FF060A"/></g><defs><clipPath id="clip0_4222_176089"><path fill="#fff" d="M0 0h52v52H0z"/></clipPath></defs></svg>