<svg xmlns="http://www.w3.org/2000/svg" viewBox="0 0 99.48 99.11"><g fill="#006bb3" fill-rule="evenodd"><path d="M49.55 0a49.2 49.2 0 0121.72 5q1.55.73 3.09 1.62l-4.56 4.11-6.86-7.08L51.37 14 44.5 6.47 23 25.89l13.77 15.22-5.43 4.77 13.61 15.26-5.4 4.76L59 87.54l11.54-10.62 10 11.39A52.9 52.9 0 0174 92.64 49.54 49.54 0 1149.55 0z"/><path d="M40.52 46.42l11.79-10.61L62.92 47.6 51.14 58.21 40.52 46.42zM48.9 66.79l11.79-10.61L71.3 67.96 59.52 78.57 48.9 66.79zM32.09 26.3l11.79-10.61 10.6 11.79L42.7 38.09 32.09 26.3zM53.72 20.59l8.83-7.96 7.96 8.84-8.84 7.96-7.95-8.84zM69.42 57.04l8.84-7.96 7.96 8.84-8.84 7.96-7.96-8.84zM77.19 74.89l8.84-7.96 7.96 8.84-8.84 7.96-7.96-8.84zM80.75 33.98l5.89-5.31 5.31 5.89-5.89 5.31-5.31-5.89zM73.23 16.47l5.89-5.31 5.3 5.9-5.89 5.3-5.3-5.89zM88.29 51.48l5.89-5.3 5.3 5.89-5.89 5.3-5.3-5.89zM61.86 38.36l8.84-7.96 7.96 8.84-8.84 7.96-7.96-8.84z"/></g></svg>